Vuur - Vlammende betogen, verkoelende humor: in 2003 ging Hans Sibbel, de Lebbis van het snelsprekende duo Lebbis en Jansen, voor de derde keer solo met Vuur. Denk dus maar aan water. Heerlijk koel water. Drie uren fietsen in de zon, harde wind tegen, onpeilbare dorst en dan eindelijk: klaterend fris, ijskoud water. Je zou dÆr een moord voor doen. Dus gaat het vooral over water. En vuur. En aarde. En ook veel lucht. De oerknal. Ambtenaren. Idols. De aanslag voor rioolbelasting. In Vuur komt alles voorbij. Niks kalm aan of even rustig: alle remmen los, de tirade als topsport

General
Format                           : AVI
Format/Info                      : Audio Video Interleave
File size                        : 802 MiB
Duration                         : 1h 29mn
Overall bit rate                 : 1 254 Kbps

Video
ID                               : 0
Format                           : MPEG-4 Visual
Format profile                   : Simple@L3
Format settings, BVOP            : No
Format settings, QPel            : No
Format settings, GMC             : No warppoints
Format settings, Matrix          : Default (H.263)
Codec ID                         : XVID
Codec ID/Hint                    : XviD
Duration                         : 1h 29mn
Bit rate                         : 800 Kbps
Width                            : 672 pixels
Height                           : 368 pixels
Display aspect ratio             : 16:9
Frame rate                       : 30.000 fps
Color space                      : YUV
Chroma subsampling               : 4:2:0
Bit depth                        : 8 bits
Scan type                        : Progressive
Bits/(Pixel*Frame)               : 0.108
Stream size                      : 511 MiB (64%)
Writing library                  : XviD 1.1.2 (UTC 2006-11-01)

Audio
ID                               : 1
Format                           : AC-3
Format/Info                      : Audio Coding 3
Mode extension                   : CM (complete main)
Codec ID                         : 2000
Duration                         : 1h 29mn
Bit rate mode                    : Constant
Bit rate                         : 448 Kbps
Channel(s)                       : 2 channels
Channel positions                : Front: L R
Sampling rate                    : 48.0 KHz
Bit depth                        : 16 bits
Stream size                      : 286 MiB (36%)
Alignment                        : Split accross interleaves
Interleave, duration             : 500 ms (15.00 video frames)
Interleave, preload duration     : 500 ms

Leave your comment about Audio/Video/Movie